<svg xmlns="http://www.w3.org/2000/svg" xmlns:xlink="http://www.w3.org/1999/xlink" xmlns:inkscape="http://www.inkscape.org/namespaces/inkscape" version="1.1" width="74" height="73" viewBox="0 0 74 73">
<path transform="matrix(1.00005,0,0,-1.00002,15.468872,57.691858)" stroke-width=".79701" stroke-linecap="butt" stroke-miterlimit="10" stroke-linejoin="miter" fill="none" stroke="#000000" d="M-14.17339 0H54.28047"/>
<path transform="matrix(1.00005,0,0,-1.00002,68.180019,57.691858)" d="M3.0275 0 1.0859 .73912 1.74007 0 1.0859-.73912Z"/>
<path transform="matrix(1.00005,0,0,-1.00002,68.180019,57.691858)" stroke-width=".67249" stroke-linecap="butt" stroke-miterlimit="10" stroke-linejoin="miter" fill="none" stroke="#000000" d="M3.0275 0 1.0859 .73912 1.74007 0 1.0859-.73912Z"/>
<path transform="matrix(1.00005,0,0,-1.00002,15.468872,57.691858)" stroke-width=".79701" stroke-linecap="butt" stroke-miterlimit="10" stroke-linejoin="miter" fill="none" stroke="#000000" d="M0-14.17339V54.28047"/>
<path transform="matrix(0,-1.00002,-1.00005,-0,15.468872,4.9822885)" d="M3.0275 0 1.0859 .73912 1.74007 0 1.0859-.73912Z"/>
<path transform="matrix(0,-1.00002,-1.00005,-0,15.468872,4.9822885)" stroke-width=".67249" stroke-linecap="butt" stroke-miterlimit="10" stroke-linejoin="miter" fill="none" stroke="#000000" d="M3.0275 0 1.0859 .73912 1.74007 0 1.0859-.73912Z"/>
</svg>
