<svg xmlns="http://www.w3.org/2000/svg" xmlns:xlink="http://www.w3.org/1999/xlink" xmlns:inkscape="http://www.inkscape.org/namespaces/inkscape" version="1.1" width="173" height="173" viewBox="0 0 173 173">
<defs>
<path id="font_1_3" d="M.5369873 .5947571C.522995 .5818329 .48999024 .55400088 .48999024 .5361023 .48999024 .5261078 .5 .516098 .5099945 .516098 .5189972 .516098 .5239868 .5231018 .5289917 .5290985 .54100039 .5440674 .56399539 .5718994 .60798647 .59376528 .61499026 .59776309 .625 .6027527 .625 .61476138 .625 .62475588 .6179962 .62976077 .61099246 .6347656 .58898928 .6497803 .5779877 .66781619 .56999209 .69184878 .56799319 .7008667 .56399539 .7138672 .5499878 .7138672 .5359955 .7138672 .5299988 .7008667 .5299988 .69285586 .5299988 .68785098 .5379944 .65579226 .55400088 .6347656H.21699524C.19999695 .6347656 .18199158 .6347656 .18199158 .61476138 .18199158 .5947571 .19999695 .5947571 .21699524 .5947571H.5369873Z"/>
<path id="font_1_1" d="M.37298585 .37835694C.35499574 .41537477 .32598878 .4423828 .2809906 .4423828 .1639862 .4423828 .039993287 .29533387 .039993287 .14929199 .039993287 .055267335 .09498596-.0107421879 .17298889-.0107421879 .19299317-.0107421879 .24299622-.0067443849 .30299378 .06427002 .31098939 .022247315 .34599305-.0107421879 .3939972-.0107421879 .42900086-.0107421879 .45199586 .012252808 .46798707 .044265748 .4850006 .08027649 .49798585 .14129639 .49798585 .14329529 .49798585 .1532898 .4889984 .1532898 .48599244 .1532898 .47599793 .1532898 .47499085 .14929199 .47200013 .13528443 .45498658 .07026672 .43699647 .011245728 .3959961 .011245728 .36898805 .011245728 .3659973 .037261964 .3659973 .057266237 .3659973 .07926941 .36799623 .08728027 .3789978 .13128662 .3899994 .17329407 .3919983 .18330384 .40098573 .22131348L.43699647 .36135865C.44400025 .38935853 .44400025 .39135743 .44400025 .39537049 .44400025 .41236878 .43199159 .42237855 .4149933 .42237855 .3909912 .42237855 .37599183 .4003601 .37298585 .37835694M.30799867 .119277957C.30299378 .10127258 .30299378 .09927368 .28799439 .08227539 .24398804 .027252198 .20298767 .011245728 .1749878 .011245728 .125 .011245728 .11099243 .06626892 .11099243 .105285648 .11099243 .1552887 .14299011 .27833558 .1659851 .32434083 .19699097 .38336183 .24198914 .42037965 .28199769 .42037965 .34700013 .42037965 .36099244 .3383484 .36099244 .33235169 .36099244 .32633973 .35899354 .32034303 .35798646 .31533814L.30799867 .119277957Z"/>
<path id="font_1_2" d="M.23899842 .68333438C.23899842 .6843262 .23899842 .69433596 .22599793 .69433596 .20298767 .69433596 .12998963 .6863251 .10398865 .6843262 .09599304 .68333438 .084991458 .6823273 .084991458 .6643219 .084991458 .6523285 .09399414 .6523285 .10899353 .6523285 .15699768 .6523285 .15899658 .6453247 .15899658 .6353302 .15899658 .6283264 .1499939 .5943451 .14498902 .573349L.06298828 .24731446C.050994874 .1973114 .04699707 .18130493 .04699707 .14628601 .04699707 .05126953 .099990848-.0107421879 .17399597-.0107421879 .2919922-.0107421879 .4149933 .1382904 .4149933 .28233338 .4149933 .37335206 .3619995 .4423828 .28199769 .4423828 .23599243 .4423828 .19499207 .41337586 .16499329 .38235475L.23899842 .68333438M.14498902 .30534364C.15098572 .3273468 .15098572 .3293457 .1599884 .3403473 .20899964 .405365 .2539978 .42037965 .27999879 .42037965 .31599427 .42037965 .34298707 .3903656 .34298707 .32633973 .34298707 .26733399 .30999757 .15229798 .2919922 .11428833 .25898744 .04725647 .21299744 .011245728 .17399597 .011245728 .13999939 .011245728 .10699463 .038253786 .10699463 .11227417 .10699463 .13128662 .10699463 .15029907 .12298584 .21331787L.14498902 .30534364Z"/>
<path id="font_2_1" d="M.40899659 .23046875H.6879883C.70199587 .23046875 .72099307 .23046875 .72099307 .25045777 .72099307 .27046205 .70199587 .27046205 .6879883 .27046205H.40899659V.5500183C.40899659 .56399539 .40899659 .5830078 .3889923 .5830078 .36898805 .5830078 .36898805 .56399539 .36898805 .5500183V.27046205H.08898926C.07499695 .27046205 .055999757 .27046205 .055999757 .25045777 .055999757 .23046875 .07499695 .23046875 .08898926 .23046875H.36898805V-.05000305C.36898805-.06401062 .36898805-.08300781 .3889923-.08300781 .40899659-.08300781 .40899659-.06401062 .40899659-.05000305V.23046875Z"/>
</defs>
<path transform="matrix(1.00006,0,0,-1.00005,1.4940109,171.28382)" stroke-width="1.19553" stroke-linecap="butt" stroke-miterlimit="10" stroke-linejoin="miter" fill="none" stroke="#0000ff" d="M0 0 125.27144 41.75716"/>
<path transform="matrix(.94869688,-.3162258,-.31622897,-.9486874,125.28163,130.02169)" d="M3.0275 0 1.0859 .73912 1.74007 0 1.0859-.73912Z" fill="#0000ff"/>
<path transform="matrix(.94869688,-.3162258,-.31622897,-.9486874,125.28163,130.02169)" stroke-width=".67249" stroke-linecap="butt" stroke-miterlimit="10" stroke-linejoin="miter" fill="none" stroke="#0000ff" d="M3.0275 0 1.0859 .73912 1.74007 0 1.0859-.73912Z"/>
<use data-text="&#x20d7;" xlink:href="#font_1_3" transform="matrix(9.963197,0,0,-9.963098,62.021638,161.0593)" fill="#0000ff"/>
<use data-text="a" xlink:href="#font_1_1" transform="matrix(9.963197,0,0,-9.963098,62.649324,161.0593)" fill="#0000ff"/>
<path transform="matrix(1.00006,0,0,-1.00005,1.4940109,171.28382)" stroke-width="1.19553" stroke-linecap="butt" stroke-miterlimit="10" stroke-linejoin="miter" fill="none" stroke="#00ff00" d="M0 0 41.75716 125.27144"/>
<path transform="matrix(.31622897,-.9486874,-.94869688,-.3162258,42.756559,47.497438)" d="M3.0275 0 1.0859 .73912 1.74007 0 1.0859-.73912Z" fill="#00ff00"/>
<path transform="matrix(.31622897,-.9486874,-.94869688,-.3162258,42.756559,47.497438)" stroke-width=".67249" stroke-linecap="butt" stroke-miterlimit="10" stroke-linejoin="miter" fill="none" stroke="#00ff00" d="M3.0275 0 1.0859 .73912 1.74007 0 1.0859-.73912Z"/>
<use data-text="&#x20d7;" xlink:href="#font_1_3" transform="matrix(9.963197,0,0,-9.963098,25.554451,109.744739)" fill="#00ff00"/>
<use data-text="b" xlink:href="#font_1_2" transform="matrix(9.963197,0,0,-9.963098,26.673523,112.37387)" fill="#00ff00"/>
<path transform="matrix(1.00006,0,0,-1.00005,1.4940109,171.28382)" stroke-width="1.19553" stroke-linecap="butt" stroke-miterlimit="10" stroke-linejoin="miter" fill="none" stroke="#ff0000" d="M0 0 168.37451 168.37451"/>
<path transform="matrix(.70714238,-.7071353,-.70714238,-.7071353,168.767,4.012497)" d="M3.0275 0 1.0859 .73912 1.74007 0 1.0859-.73912Z" fill="#ff0000"/>
<path transform="matrix(.70714238,-.7071353,-.70714238,-.7071353,168.767,4.012497)" stroke-width=".67249" stroke-linecap="butt" stroke-miterlimit="10" stroke-linejoin="miter" fill="none" stroke="#ff0000" d="M3.0275 0 1.0859 .73912 1.74007 0 1.0859-.73912Z"/>
<use data-text="&#x20d7;" xlink:href="#font_1_3" transform="matrix(9.963197,0,0,-9.963098,89.835308,90.697788)" fill="#ff0000"/>
<use data-text="a" xlink:href="#font_1_1" transform="matrix(9.963197,0,0,-9.963098,90.46299,90.697788)" fill="#ff0000"/>
<use data-text="+" xlink:href="#font_2_1" transform="matrix(9.963197,0,0,-9.963098,97.93879,90.697788)" fill="#ff0000"/>
<use data-text="&#x20d7;" xlink:href="#font_1_3" transform="matrix(9.963197,0,0,-9.963098,106.783329,88.06865)" fill="#ff0000"/>
<use data-text="b" xlink:href="#font_1_2" transform="matrix(9.963197,0,0,-9.963098,107.90239,90.697788)" fill="#ff0000"/>
<path transform="matrix(1.00006,0,0,-1.00005,1.4940109,171.28382)" stroke-width="1.19553" stroke-linecap="butt" stroke-miterlimit="10" stroke-linejoin="miter" fill="none" stroke="#00ff00" d="M127.56062 42.5202 169.31781 167.79166"/>
<path transform="matrix(.31622897,-.9486874,-.94869688,-.3162258,170.32486,4.9750826)" d="M3.0275 0 1.0859 .73912 1.74007 0 1.0859-.73912Z" fill="#00ff00"/>
<path transform="matrix(.31622897,-.9486874,-.94869688,-.3162258,170.32486,4.9750826)" stroke-width=".67249" stroke-linecap="butt" stroke-miterlimit="10" stroke-linejoin="miter" fill="none" stroke="#00ff00" d="M3.0275 0 1.0859 .73912 1.74007 0 1.0859-.73912Z"/>
<path transform="matrix(1.00006,0,0,-1.00005,1.4940109,171.28382)" stroke-width="1.19553" stroke-linecap="butt" stroke-miterlimit="10" stroke-linejoin="miter" fill="none" stroke="#0000ff" d="M42.5202 127.56062 167.79166 169.31781"/>
<path transform="matrix(.94869688,-.3162258,-.31622897,-.9486874,167.80442,2.4546509)" d="M3.0275 0 1.0859 .73912 1.74007 0 1.0859-.73912Z" fill="#0000ff"/>
<path transform="matrix(.94869688,-.3162258,-.31622897,-.9486874,167.80442,2.4546509)" stroke-width=".67249" stroke-linecap="butt" stroke-miterlimit="10" stroke-linejoin="miter" fill="none" stroke="#0000ff" d="M3.0275 0 1.0859 .73912 1.74007 0 1.0859-.73912Z"/>
</svg>
