<svg xmlns="http://www.w3.org/2000/svg" xmlns:xlink="http://www.w3.org/1999/xlink" xmlns:inkscape="http://www.inkscape.org/namespaces/inkscape" version="1.1" width="93" height="106" viewBox="0 0 93 106">
<defs>
<path id="font_1_1" d="M.5369873 .5947571C.522995 .5818329 .48999024 .55400088 .48999024 .5361023 .48999024 .5261078 .5 .516098 .5099945 .516098 .5189972 .516098 .5239868 .5231018 .5289917 .5290985 .54100039 .5440674 .56399539 .5718994 .60798647 .59376528 .61499026 .59776309 .625 .6027527 .625 .61476138 .625 .62475588 .6179962 .62976077 .61099246 .6347656 .58898928 .6497803 .5779877 .66781619 .56999209 .69184878 .56799319 .7008667 .56399539 .7138672 .5499878 .7138672 .5359955 .7138672 .5299988 .7008667 .5299988 .69285586 .5299988 .68785098 .5379944 .65579226 .55400088 .6347656H.21699524C.19999695 .6347656 .18199158 .6347656 .18199158 .61476138 .18199158 .5947571 .19999695 .5947571 .21699524 .5947571H.5369873Z"/>
<path id="font_2_1" d="M.45999146 .31976319C.45999146 .39982606 .45498658 .47988893 .41999818 .5539398 .37399293 .65000918 .2919922 .6660156 .25 .6660156 .18998719 .6660156 .116989139 .64001467 .07598877 .54693606 .04399109 .47789 .038986207 .39982606 .038986207 .31976319 .038986207 .24472046 .042999269 .15464783 .083999637 .07859802 .1269989-.0024719239 .19999695-.022460938 .24899292-.022460938 .30299378-.022460938 .3789978-.0014648438 .4229889 .09359741 .45498658 .16265869 .45999146 .2407074 .45999146 .31976319M.24899292-.00047302247C.20999146-.00047302247 .15098572 .024551392 .1329956 .12062073 .12199402 .18066406 .12199402 .2727356 .12199402 .3317871 .12199402 .39582826 .12199402 .46188355 .12998963 .5159149 .14898682 .63500979 .22399903 .64401248 .24899292 .64401248 .28199769 .64401248 .34799195 .6259918 .36698915 .52693179 .3769989 .47088624 .3769989 .39482118 .3769989 .3317871 .3769989 .25672914 .3769989 .18867493 .3659973 .12461853 .35099793 .029556275 .2939911-.00047302247 .24899292-.00047302247Z"/>
</defs>
<path transform="matrix(1,0,0,-1.00006,24.676003,67.20207)" d="M0 0 55.18584-21.72197 43.37239 25.20793-11.81342 46.9299Z" fill="#ebebff"/>
<path transform="matrix(1,0,0,-1.00006,24.676003,67.20207)" stroke-width=".3985" stroke-linecap="butt" stroke-miterlimit="10" stroke-linejoin="miter" fill="none" stroke="#9999ff" d="M0 0 55.18584-21.72197 43.37239 25.20793-11.81342 46.9299Z"/>
<path transform="matrix(1,0,0,-1.00006,24.676003,67.20207)" stroke-width=".3985" stroke-linecap="butt" stroke-miterlimit="10" stroke-linejoin="miter" fill="none" stroke="#000000" d="M0 0-22.2668-34.80713"/>
<path transform="matrix(-.53886,.84238049,.84233,.5388923,3.1955033,100.782108)" d="M3.41763 0 .64348 1.04684 1.55879 0 .64348-1.04684Z"/>
<path transform="matrix(-.53886,.84238049,.84233,.5388923,3.1955033,100.782108)" stroke-width=".3985" stroke-linecap="butt" stroke-miterlimit="10" stroke-linejoin="miter" fill="none" stroke="#000000" d="M3.41763 0 .64348 1.04684 1.55879 0 .64348-1.04684Z"/>
<path transform="matrix(1,0,0,-1.00006,24.676003,67.20207)" stroke-width=".3985" stroke-linecap="butt" stroke-miterlimit="10" stroke-linejoin="miter" fill="none" stroke="#000000" d="M0 0 64.47949-3.13298"/>
<path transform="matrix(.99878,.04852291,.04852,-.9988399,87.698108,70.264438)" d="M3.41763 0 .64348 1.04684 1.55879 0 .64348-1.04684Z"/>
<path transform="matrix(.99878,.04852291,.04852,-.9988399,87.698108,70.264438)" stroke-width=".3985" stroke-linecap="butt" stroke-miterlimit="10" stroke-linejoin="miter" fill="none" stroke="#000000" d="M3.41763 0 .64348 1.04684 1.55879 0 .64348-1.04684Z"/>
<path transform="matrix(1,0,0,-1.00006,24.676003,67.20207)" stroke-width=".3985" stroke-linecap="butt" stroke-miterlimit="10" stroke-linejoin="miter" fill="none" stroke="#000000" d="M0 0V62.87354"/>
<path transform="matrix(0,-1.00006,-1,-0,24.676003,5.7840425)" d="M3.41763 0 .64348 1.04684 1.55879 0 .64348-1.04684Z"/>
<path transform="matrix(0,-1.00006,-1,-0,24.676003,5.7840425)" stroke-width=".3985" stroke-linecap="butt" stroke-miterlimit="10" stroke-linejoin="miter" fill="none" stroke="#000000" d="M3.41763 0 .64348 1.04684 1.55879 0 .64348-1.04684Z"/>
<path transform="matrix(1,0,0,-1.00006,24.676003,67.20207)" stroke-width="1.19553" stroke-linecap="butt" stroke-miterlimit="10" stroke-linejoin="miter" fill="none" stroke="#0000ff" d="M0 0 52.94305-20.8392"/>
<path transform="matrix(.93045,.36625199,.36623,-.9305058,76.15642,87.46679)" d="M3.0275 0 1.0859 .73912 1.74007 0 1.0859-.73912Z" fill="#0000ff"/>
<path transform="matrix(.93045,.36625199,.36623,-.9305058,76.15642,87.46679)" stroke-width=".67249" stroke-linecap="butt" stroke-miterlimit="10" stroke-linejoin="miter" fill="none" stroke="#0000ff" d="M3.0275 0 1.0859 .73912 1.74007 0 1.0859-.73912Z"/>
<path transform="matrix(1,0,0,-1.00006,24.676003,67.20207)" stroke-width="1.19553" stroke-linecap="butt" stroke-miterlimit="10" stroke-linejoin="miter" fill="none" stroke="#0000ff" d="M0 0-11.22495 44.59196"/>
<path transform="matrix(-.24408,-.9697882,-.96973,.24409464,13.834752,24.13189)" d="M3.0275 0 1.0859 .73912 1.74007 0 1.0859-.73912Z" fill="#0000ff"/>
<path transform="matrix(-.24408,-.9697882,-.96973,.24409464,13.834752,24.13189)" stroke-width=".67249" stroke-linecap="butt" stroke-miterlimit="10" stroke-linejoin="miter" fill="none" stroke="#0000ff" d="M3.0275 0 1.0859 .73912 1.74007 0 1.0859-.73912Z"/>
<use data-text="&#x20d7;" xlink:href="#font_1_1" transform="matrix(9.9626,0,0,-9.963197,21.419007,77.84071)"/>
<use data-text="0" xlink:href="#font_2_1" transform="matrix(9.9626,0,0,-9.963197,22.185006,79.97184)"/>
</svg>
