<svg xmlns="http://www.w3.org/2000/svg" xmlns:xlink="http://www.w3.org/1999/xlink" xmlns:inkscape="http://www.inkscape.org/namespaces/inkscape" version="1.1" width="116" height="117" viewBox="0 0 116 117">
<path transform="matrix(1.00002,0,0,-1,57.988817,58.691)" stroke-width=".19925" stroke-linecap="butt" stroke-miterlimit="10" stroke-linejoin="miter" fill="none" stroke="#7f807f" d="M-56.69362-56.69362H56.69362M-56.69362-42.5202H56.69362M-56.69362-28.3468H56.69362M-56.69362-14.17339H56.69362M-56.69362 0H56.69362M-56.69362 14.17339H56.69362M-56.69362 28.3468H56.69362M-56.69362 42.5202H56.69362M-56.69362 56.68863H56.69362M-56.69362-56.69362V56.69362M-42.5202-56.69362V56.69362M-28.3468-56.69362V56.69362M-14.17339-56.69362V56.69362M0-56.69362V56.69362M14.17339-56.69362V56.69362M28.3468-56.69362V56.69362M42.5202-56.69362V56.69362M56.68863-56.69362V56.69362M56.69362 56.69362"/>
<path transform="matrix(1.00002,0,0,-1,57.988817,58.691)" stroke-width=".79701" stroke-linecap="butt" stroke-miterlimit="10" stroke-linejoin="miter" fill="none" stroke="#000000" d="M-56.69362 0H54.28047"/>
<path transform="matrix(1.00002,0,0,-1,110.69838,58.691)" d="M3.0275 0 1.0859 .73912 1.74007 0 1.0859-.73912Z"/>
<path transform="matrix(1.00002,0,0,-1,110.69838,58.691)" stroke-width=".67249" stroke-linecap="butt" stroke-miterlimit="10" stroke-linejoin="miter" fill="none" stroke="#000000" d="M3.0275 0 1.0859 .73912 1.74007 0 1.0859-.73912Z"/>
<path transform="matrix(1.00002,0,0,-1,57.988817,58.691)" stroke-width=".79701" stroke-linecap="butt" stroke-miterlimit="10" stroke-linejoin="miter" fill="none" stroke="#000000" d="M0-56.69362V54.28047"/>
<path transform="matrix(0,-1,-1.00002,-0,57.988817,5.9824907)" d="M3.0275 0 1.0859 .73912 1.74007 0 1.0859-.73912Z"/>
<path transform="matrix(0,-1,-1.00002,-0,57.988817,5.9824907)" stroke-width=".67249" stroke-linecap="butt" stroke-miterlimit="10" stroke-linejoin="miter" fill="none" stroke="#000000" d="M3.0275 0 1.0859 .73912 1.74007 0 1.0859-.73912Z"/>
</svg>
