<svg xmlns="http://www.w3.org/2000/svg" xmlns:xlink="http://www.w3.org/1999/xlink" xmlns:inkscape="http://www.inkscape.org/namespaces/inkscape" version="1.1" width="259" height="119" viewBox="0 0 259 119">
<defs>
<path id="font_1_4" d="M.5369873 .5947571C.522995 .5818329 .48999024 .55400088 .48999024 .5361023 .48999024 .5261078 .5 .516098 .5099945 .516098 .5189972 .516098 .5239868 .5231018 .5289917 .5290985 .54100039 .5440674 .56399539 .5718994 .60798647 .59376528 .61499026 .59776309 .625 .6027527 .625 .61476138 .625 .62475588 .6179962 .62976077 .61099246 .6347656 .58898928 .6497803 .5779877 .66781619 .56999209 .69184878 .56799319 .7008667 .56399539 .7138672 .5499878 .7138672 .5359955 .7138672 .5299988 .7008667 .5299988 .69285586 .5299988 .68785098 .5379944 .65579226 .55400088 .6347656H.21699524C.19999695 .6347656 .18199158 .6347656 .18199158 .61476138 .18199158 .5947571 .19999695 .5947571 .21699524 .5947571H.5369873Z"/>
<path id="font_2_2" d="M.45999146 .31976319C.45999146 .39982606 .45498658 .47988893 .41999818 .5539398 .37399293 .65000918 .2919922 .6660156 .25 .6660156 .18998719 .6660156 .116989139 .64001467 .07598877 .54693606 .04399109 .47789 .038986207 .39982606 .038986207 .31976319 .038986207 .24472046 .042999269 .15464783 .083999637 .07859802 .1269989-.0024719239 .19999695-.022460938 .24899292-.022460938 .30299378-.022460938 .3789978-.0014648438 .4229889 .09359741 .45498658 .16265869 .45999146 .2407074 .45999146 .31976319M.24899292-.00047302247C.20999146-.00047302247 .15098572 .024551392 .1329956 .12062073 .12199402 .18066406 .12199402 .2727356 .12199402 .3317871 .12199402 .39582826 .12199402 .46188355 .12998963 .5159149 .14898682 .63500979 .22399903 .64401248 .24899292 .64401248 .28199769 .64401248 .34799195 .6259918 .36698915 .52693179 .3769989 .47088624 .3769989 .39482118 .3769989 .3317871 .3769989 .25672914 .3769989 .18867493 .3659973 .12461853 .35099793 .029556275 .2939911-.00047302247 .24899292-.00047302247Z"/>
<path id="font_1_2" d="M.34999085 .056259157C.36099244 .015258789 .3959961-.0107421879 .43899537-.0107421879 .47399903-.0107421879 .49699403 .012252808 .5130005 .044265748 .5299988 .08027649 .54299929 .14129639 .54299929 .14329529 .54299929 .1532898 .5339966 .1532898 .5309906 .1532898 .5209961 .1532898 .519989 .14929199 .5169983 .13528443 .5029907 .07926941 .48399354 .011245728 .44198609 .011245728 .42099 .011245728 .41099549 .024261475 .41099549 .057266237 .41099549 .07926941 .4229889 .12628174 .43099977 .16130066L.45899964 .2693329C.46199037 .28433229 .47200013 .32234193 .47599793 .3373413 .48098756 .36035157 .4909973 .3983612 .4909973 .40437318 .4909973 .42237855 .47698976 .43138124 .46199037 .43138124 .45700074 .43138124 .43099977 .43037416 .4229889 .3963623 .4039917 .323349 .3600006 .14828491 .34799195 .09527588 .34700013 .091278079 .30699159 .011245728 .23399353 .011245728 .18199158 .011245728 .17199707 .056259157 .17199707 .09327698 .17199707 .14929199 .19999695 .22831726 .22599793 .29733277 .23799134 .3273468 .24299622 .34135438 .24299622 .36035157 .24299622 .405365 .21099854 .4423828 .16099549 .4423828 .06599426 .4423828 .0289917 .29733277 .0289917 .28833009 .0289917 .27833558 .038986207 .27833558 .040985109 .27833558 .050994874 .27833558 .051986696 .28033448 .056991579 .29634095 .08198547 .38336183 .11999512 .42037965 .1579895 .42037965 .16699219 .42037965 .18299866 .41937257 .18299866 .38735963 .18299866 .36335755 .17199707 .3343506 .1659851 .31933595 .1289978 .2203064 .10798645 .15829468 .10798645 .10928345 .10798645 .014251709 .1769867-.0107421879 .23098755-.0107421879 .29699708-.0107421879 .33299256 .03425598 .34999085 .056259157Z"/>
<path id="font_2_4" d="M.1269989 .07699585 .23298645 .18003845C.3889923 .31811524 .44898988 .3721466 .44898988 .47216798 .44898988 .5860901 .35899354 .6660156 .23699951 .6660156 .12399292 .6660156 .049987794 .57411196 .049987794 .48516847 .049987794 .4291687 .099990848 .4291687 .102996829 .4291687 .11999512 .4291687 .15499878 .44117738 .15499878 .48217774 .15499878 .5081787 .13699341 .5341797 .101989749 .5341797 .09399414 .5341797 .09199524 .5341797 .08898926 .5331726 .11199951 .59806826 .1659851 .63500979 .22399903 .63500979 .31498719 .63500979 .35798646 .5541382 .35798646 .47216798 .35798646 .39215089 .30799867 .31311036 .25299073 .25108338L.06098938 .036987306C.049987794 .025985718 .049987794 .023986817 .049987794 0H.42099L.44898988 .17404175H.42399598C.4189911 .14402771 .4119873 .1000061 .4019928 .084991458 .394989 .07699585 .32899476 .07699585 .30699159 .07699585H.1269989Z"/>
<path id="font_1_3" d="M.46798707 .37236024C.46798707 .42637635 .44198609 .4423828 .42399598 .4423828 .39898683 .4423828 .375 .41636659 .375 .3943634 .375 .38136292 .37998963 .3753662 .3909912 .36434938 .4119873 .3443451 .4249878 .31834413 .4249878 .28233338 .4249878 .24032593 .3639984 .011245728 .24699402 .011245728 .19599915 .011245728 .17298889 .04626465 .17298889 .09828186 .17298889 .15429688 .19999695 .22731018 .23098755 .31033326 .23799134 .3273468 .24299622 .34135438 .24299622 .36035157 .24299622 .405365 .21099854 .4423828 .16099549 .4423828 .066986087 .4423828 .0289917 .29733277 .0289917 .28833009 .0289917 .27833558 .038986207 .27833558 .040985109 .27833558 .050994874 .27833558 .051986696 .28033448 .056991579 .29634095 .085998538 .39736939 .1289978 .42037965 .1579895 .42037965 .1659851 .42037965 .18299866 .42037965 .18299866 .3883667 .18299866 .36335755 .17298889 .3363495 .1659851 .31834413 .12199402 .20230103 .10899353 .15629578 .10899353 .11328125 .10899353 .0052490236 .19699097-.0107421879 .24299622-.0107421879 .41099549-.0107421879 .46798707 .32034303 .46798707 .37236024Z"/>
<path id="font_2_1" d="M.40899659 .23046875H.6879883C.70199587 .23046875 .72099307 .23046875 .72099307 .25045777 .72099307 .27046205 .70199587 .27046205 .6879883 .27046205H.40899659V.5500183C.40899659 .56399539 .40899659 .5830078 .3889923 .5830078 .36898805 .5830078 .36898805 .56399539 .36898805 .5500183V.27046205H.08898926C.07499695 .27046205 .055999757 .27046205 .055999757 .25045777 .055999757 .23046875 .07499695 .23046875 .08898926 .23046875H.36898805V-.05000305C.36898805-.06401062 .36898805-.08300781 .3889923-.08300781 .40899659-.08300781 .40899659-.06401062 .40899659-.05000305V.23046875Z"/>
<path id="font_3_1" d="M.6589966 .23046875C.6759949 .23046875 .69400027 .23046875 .69400027 .25045777 .69400027 .27046205 .6759949 .27046205 .6589966 .27046205H.117996219C.100997928 .27046205 .08299255 .27046205 .08299255 .25045777 .08299255 .23046875 .100997928 .23046875 .117996219 .23046875H.6589966Z"/>
<path id="font_2_3" d="M.2939911 .64004519C.2939911 .66400149 .2939911 .6660156 .2709961 .6660156 .20899964 .60227969 .12098694 .60227969 .08898926 .60227969V.57128909C.10899353 .57128909 .16799927 .57128909 .21998596 .5972748V.07902527C.21998596 .042999269 .21699524 .0309906 .1269989 .0309906H.09498596V0C.12998963 .0029907227 .21699524 .0029907227 .25698854 .0029907227 .29699708 .0029907227 .38398744 .0029907227 .4189911 0V.0309906H.3869934C.29699708 .0309906 .2939911 .041992189 .2939911 .07902527V.64004519Z"/>
<path id="font_1_1" d="M.19198609 .052993776C.19198609 .08198547 .16799927 .10598755 .13899231 .10598755 .10998535 .10598755 .085998538 .08198547 .085998538 .052993776 .085998538 .023986817 .10998535 0 .13899231 0 .16799927 0 .19198609 .023986817 .19198609 .052993776Z"/>
<path id="font_2_5" d="M.44898988 .20022583C.44898988 .3193512 .36698915 .41944886 .25898744 .41944886 .21099854 .41944886 .16799927 .40345765 .13198853 .36842347V.5637665C.1519928 .5577698 .18499756 .55078127 .21699524 .55078127 .33999635 .55078127 .4099884 .6417694 .4099884 .6547699 .4099884 .6607666 .40699769 .6657715 .3999939 .6657715 .39898683 .6657715 .39698792 .6657715 .3919983 .66278079 .37199403 .6537781 .32299806 .6337738 .2559967 .6337738 .21598816 .6337738 .16999817 .6407776 .12298584 .6617737 .114990238 .66477969 .11299133 .66477969 .11099243 .66477969 .100997928 .66477969 .100997928 .6567688 .100997928 .6407776V.34439088C.100997928 .32637025 .100997928 .31835938 .114990238 .31835938 .12199402 .31835938 .12399292 .32136537 .12799073 .32736207 .13899231 .3433838 .17599488 .39746095 .25698854 .39746095 .30899049 .39746095 .33399964 .35139466 .34199525 .33337403 .35798646 .29632569 .3600006 .25727845 .3600006 .20722962 .3600006 .17222595 .3600006 .11222839 .33599855 .07035828 .31199647 .031463624 .2749939 .0055389406 .22898865 .0055389406 .1559906 .0055389406 .09899902 .058380128 .08198547 .11723328 .084991458 .1162262 .08799744 .115234378 .09899902 .115234378 .13198853 .115234378 .14898682 .14022827 .14898682 .16423035 .14898682 .18823242 .13198853 .21322632 .09899902 .21322632 .084991458 .21322632 .049987794 .20622254 .049987794 .16023255 .049987794 .07434082 .11898804-.022460938 .23098755-.022460938 .34700013-.022460938 .44898988 .073349 .44898988 .20022583Z"/>
</defs>
<path transform="matrix(1.00009,0,0,-1.00002,9.250206,117.10511)" stroke-width=".3985" stroke-linecap="butt" stroke-miterlimit="10" stroke-linejoin="miter" fill="none" stroke="#7f807f" d="M0 0 248.49825 21.74107M-2.71762 31.06227 245.78063 52.80334M-5.43526 62.12454 243.06298 83.86563M-8.1529 93.18683 240.34535 114.9279"/>
<path transform="matrix(1.00009,0,0,-1.00002,9.250206,117.10511)" stroke-width=".3985" stroke-linecap="butt" stroke-miterlimit="10" stroke-linejoin="miter" fill="none" stroke="#7f807f" d="M31.06227 2.71762 22.90938 95.90445M93.18683 8.1529 85.03394 101.33972M155.3114 13.58817 147.15851 106.775M217.43598 19.02344 209.28308 112.21028"/>
<use data-text="&#x20d7;" xlink:href="#font_1_4" transform="matrix(9.963496,0,0,-9.962799,96.470058,80.38237)"/>
<use data-text="0" xlink:href="#font_2_2" transform="matrix(9.963496,0,0,-9.962799,97.23712,82.51341)"/>
<path transform="matrix(1.00009,0,0,-1.00002,9.250206,117.10511)" stroke-width="1.19553" stroke-linecap="butt" stroke-miterlimit="10" stroke-linejoin="miter" fill="none" stroke="#00ff00" d="M90.46921 39.21516 150.18987 44.44012"/>
<path transform="matrix(.9962596,-.08716174,-.087167847,-.99618998,157.88751,72.80112)" d="M3.0275 0 1.0859 .73912 1.74007 0 1.0859-.73912Z" fill="#00ff00"/>
<path transform="matrix(.9962596,-.08716174,-.087167847,-.99618998,157.88751,72.80112)" stroke-width=".67249" stroke-linecap="butt" stroke-miterlimit="10" stroke-linejoin="miter" fill="none" stroke="#00ff00" d="M3.0275 0 1.0859 .73912 1.74007 0 1.0859-.73912Z"/>
<use data-text="&#x20d7;" xlink:href="#font_1_4" transform="matrix(9.963496,0,0,-9.962799,165.64728,83.49044)" fill="#00ff00"/>
<use data-text="u" xlink:href="#font_1_2" transform="matrix(9.963496,0,0,-9.962799,165.7768,83.49044)" fill="#00ff00"/>
<use data-text="2" xlink:href="#font_2_4" transform="matrix(9.963496,0,0,-9.962799,218.64505,70.57718)" fill="#7f807f"/>
<use data-text="&#x20d7;" xlink:href="#font_1_4" transform="matrix(9.963496,0,0,-9.962799,223.4975,70.57718)" fill="#7f807f"/>
<use data-text="u" xlink:href="#font_1_2" transform="matrix(9.963496,0,0,-9.962799,223.62702,70.57718)" fill="#7f807f"/>
<path transform="matrix(1.00009,0,0,-1.00002,9.250206,117.10511)" stroke-width="1.19553" stroke-linecap="butt" stroke-miterlimit="10" stroke-linejoin="miter" fill="none" stroke="#00aeef" d="M90.46921 39.21516 87.96188 67.87354"/>
<path transform="matrix(-.087167847,-.99618998,-.9962596,.08716174,97.357028,50.79618)" d="M3.0275 0 1.0859 .73912 1.74007 0 1.0859-.73912Z" fill="#00aeef"/>
<path transform="matrix(-.087167847,-.99618998,-.9962596,.08716174,97.357028,50.79618)" stroke-width=".67249" stroke-linecap="butt" stroke-miterlimit="10" stroke-linejoin="miter" fill="none" stroke="#00aeef" d="M3.0275 0 1.0859 .73912 1.74007 0 1.0859-.73912Z"/>
<use data-text="&#x20d7;" xlink:href="#font_1_4" transform="matrix(9.963496,0,0,-9.962799,100.54142,57.862924)" fill="#00aeef"/>
<use data-text="v" xlink:href="#font_1_3" transform="matrix(9.963496,0,0,-9.962799,100.92999,57.862924)" fill="#00aeef"/>
<path transform="matrix(1.00009,0,0,-1.00002,9.250206,117.10511)" stroke-width="1.19553" stroke-linecap="butt" stroke-miterlimit="10" stroke-linejoin="miter" fill="none" stroke="#0000ff" d="M90.46921 39.21516 147.82016 74.4496"/>
<path transform="matrix(.8520667,-.5234505,-.5234871,-.85200706,155.74427,43.47689)" d="M3.0275 0 1.0859 .73912 1.74007 0 1.0859-.73912Z" fill="#0000ff"/>
<path transform="matrix(.8520667,-.5234505,-.5234871,-.85200706,155.74427,43.47689)" stroke-width=".67249" stroke-linecap="butt" stroke-miterlimit="10" stroke-linejoin="miter" fill="none" stroke="#0000ff" d="M3.0275 0 1.0859 .73912 1.74007 0 1.0859-.73912Z"/>
<use data-text="&#x20d7;" xlink:href="#font_1_4" transform="matrix(9.963496,0,0,-9.962799,162.67102,52.42681)" fill="#0000ff"/>
<use data-text="v" xlink:href="#font_1_3" transform="matrix(9.963496,0,0,-9.962799,163.0596,52.42681)" fill="#0000ff"/>
<use data-text="+" xlink:href="#font_2_1" transform="matrix(9.963496,0,0,-9.962799,170.45873,52.42681)" fill="#0000ff"/>
<use data-text="&#x20d7;" xlink:href="#font_1_4" transform="matrix(9.963496,0,0,-9.962799,180.29361,52.42681)" fill="#0000ff"/>
<use data-text="u" xlink:href="#font_1_2" transform="matrix(9.963496,0,0,-9.962799,180.42313,52.42681)" fill="#0000ff"/>
<use data-text="&#x20d7;" xlink:href="#font_1_4" transform="matrix(9.963496,0,0,-9.962799,206.858,39.09955)" fill="#7f807f"/>
<use data-text="v" xlink:href="#font_1_3" transform="matrix(9.963496,0,0,-9.962799,207.24658,39.09955)" fill="#7f807f"/>
<use data-text="+" xlink:href="#font_2_1" transform="matrix(9.963496,0,0,-9.962799,214.6457,39.09955)" fill="#7f807f"/>
<use data-text="2" xlink:href="#font_2_4" transform="matrix(9.963496,0,0,-9.962799,224.59925,39.09955)" fill="#7f807f"/>
<use data-text="&#x20d7;" xlink:href="#font_1_4" transform="matrix(9.963496,0,0,-9.962799,229.46305,39.09955)" fill="#7f807f"/>
<use data-text="u" xlink:href="#font_1_2" transform="matrix(9.963496,0,0,-9.962799,229.59256,39.09955)" fill="#7f807f"/>
<use data-text="2" xlink:href="#font_2_4" transform="matrix(9.963496,0,0,-9.962799,202.03556,8.036926)" fill="#7f807f"/>
<use data-text="&#x20d7;" xlink:href="#font_1_4" transform="matrix(9.963496,0,0,-9.962799,206.62998,8.036926)" fill="#7f807f"/>
<use data-text="v" xlink:href="#font_1_3" transform="matrix(9.963496,0,0,-9.962799,207.01856,8.036926)" fill="#7f807f"/>
<use data-text="+" xlink:href="#font_2_1" transform="matrix(9.963496,0,0,-9.962799,214.4177,8.036926)" fill="#7f807f"/>
<use data-text="2" xlink:href="#font_2_4" transform="matrix(9.963496,0,0,-9.962799,224.37122,8.036926)" fill="#7f807f"/>
<use data-text="&#x20d7;" xlink:href="#font_1_4" transform="matrix(9.963496,0,0,-9.962799,229.23502,8.036926)" fill="#7f807f"/>
<use data-text="u" xlink:href="#font_1_2" transform="matrix(9.963496,0,0,-9.962799,229.36455,8.036926)" fill="#7f807f"/>
<use data-text="2" xlink:href="#font_2_4" transform="matrix(9.963496,0,0,-9.962799,142.39719,13.472038)" fill="#7f807f"/>
<use data-text="&#x20d7;" xlink:href="#font_1_4" transform="matrix(9.963496,0,0,-9.962799,146.99161,13.472038)" fill="#7f807f"/>
<use data-text="v" xlink:href="#font_1_3" transform="matrix(9.963496,0,0,-9.962799,147.38018,13.472038)" fill="#7f807f"/>
<use data-text="+" xlink:href="#font_2_1" transform="matrix(9.963496,0,0,-9.962799,154.7793,13.472038)" fill="#7f807f"/>
<use data-text="&#x20d7;" xlink:href="#font_1_4" transform="matrix(9.963496,0,0,-9.962799,164.61519,13.472038)" fill="#7f807f"/>
<use data-text="u" xlink:href="#font_1_2" transform="matrix(9.963496,0,0,-9.962799,164.74472,13.472038)" fill="#7f807f"/>
<use data-text="2" xlink:href="#font_2_4" transform="matrix(9.963496,0,0,-9.962799,89.2074,19.322152)" fill="#7f807f"/>
<use data-text="&#x20d7;" xlink:href="#font_1_4" transform="matrix(9.963496,0,0,-9.962799,93.80182,19.322152)" fill="#7f807f"/>
<use data-text="v" xlink:href="#font_1_3" transform="matrix(9.963496,0,0,-9.962799,94.19039,19.322152)" fill="#7f807f"/>
<use data-text="2" xlink:href="#font_2_4" transform="matrix(9.963496,0,0,-9.962799,18.13601,24.342255)" fill="#7f807f"/>
<use data-text="&#x20d7;" xlink:href="#font_1_4" transform="matrix(9.963496,0,0,-9.962799,22.73043,24.342255)" fill="#7f807f"/>
<use data-text="v" xlink:href="#font_1_3" transform="matrix(9.963496,0,0,-9.962799,23.119004,24.342255)" fill="#7f807f"/>
<use data-text="&#x2212;" xlink:href="#font_3_1" transform="matrix(9.963496,0,0,-9.962799,30.518136,24.342255)" fill="#7f807f"/>
<use data-text="&#x20d7;" xlink:href="#font_1_4" transform="matrix(9.963496,0,0,-9.962799,40.35402,24.342255)" fill="#7f807f"/>
<use data-text="u" xlink:href="#font_1_2" transform="matrix(9.963496,0,0,-9.962799,40.483545,24.342255)" fill="#7f807f"/>
<use data-text="&#x20d7;" xlink:href="#font_1_4" transform="matrix(9.963496,0,0,-9.962799,22.958443,55.405874)" fill="#7f807f"/>
<use data-text="v" xlink:href="#font_1_3" transform="matrix(9.963496,0,0,-9.962799,23.347016,55.405874)" fill="#7f807f"/>
<use data-text="&#x2212;" xlink:href="#font_3_1" transform="matrix(9.963496,0,0,-9.962799,30.746148,55.405874)" fill="#7f807f"/>
<use data-text="&#x20d7;" xlink:href="#font_1_4" transform="matrix(9.963496,0,0,-9.962799,40.58103,55.405874)" fill="#7f807f"/>
<use data-text="u" xlink:href="#font_1_2" transform="matrix(9.963496,0,0,-9.962799,40.710557,55.405874)" fill="#7f807f"/>
<use data-text="&#x2212;" xlink:href="#font_3_1" transform="matrix(9.963496,0,0,-9.962799,30.871151,86.4685)" fill="#7f807f"/>
<use data-text="&#x20d7;" xlink:href="#font_1_4" transform="matrix(9.963496,0,0,-9.962799,38.49184,86.4685)" fill="#7f807f"/>
<use data-text="u" xlink:href="#font_1_2" transform="matrix(9.963496,0,0,-9.962799,38.621374,86.4685)" fill="#7f807f"/>
<path transform="matrix(1.00009,0,0,-1.00002,9.250206,117.10511)" stroke-width="1.19553" stroke-linecap="butt" stroke-miterlimit="10" stroke-linejoin="miter" fill="none" stroke="#ff0000" d="M90.46921 39.21516 56.83885 81.20749"/>
<path transform="matrix(-.62513628,-.7805156,-.78057029,.6250925,67.07687,37.122949)" d="M3.0275 0 1.0859 .73912 1.74007 0 1.0859-.73912Z" fill="#ff0000"/>
<path transform="matrix(-.62513628,-.7805156,-.78057029,.6250925,67.07687,37.122949)" stroke-width=".67249" stroke-linecap="butt" stroke-miterlimit="10" stroke-linejoin="miter" fill="none" stroke="#ff0000" d="M3.0275 0 1.0859 .73912 1.74007 0 1.0859-.73912Z"/>
<use data-text="1" xlink:href="#font_2_3" transform="matrix(9.963496,0,0,-9.962799,12.135468,45.048669)" fill="#ff0000"/>
<use data-text="." xlink:href="#font_1_1" transform="matrix(9.963496,0,0,-9.962799,17.11692,45.048669)" fill="#ff0000"/>
<use data-text="5" xlink:href="#font_2_5" transform="matrix(9.963496,0,0,-9.962799,19.88417,45.048669)" fill="#ff0000"/>
<use data-text="&#x20d7;" xlink:href="#font_1_4" transform="matrix(9.963496,0,0,-9.962799,24.479584,45.048669)" fill="#ff0000"/>
<use data-text="v" xlink:href="#font_1_3" transform="matrix(9.963496,0,0,-9.962799,24.868165,45.048669)" fill="#ff0000"/>
<use data-text="&#x2212;" xlink:href="#font_3_1" transform="matrix(9.963496,0,0,-9.962799,32.26729,45.048669)" fill="#ff0000"/>
<use data-text="0" xlink:href="#font_2_2" transform="matrix(9.963496,0,0,-9.962799,42.23118,45.048669)" fill="#ff0000"/>
<use data-text="." xlink:href="#font_1_1" transform="matrix(9.963496,0,0,-9.962799,47.21263,45.048669)" fill="#ff0000"/>
<use data-text="5" xlink:href="#font_2_5" transform="matrix(9.963496,0,0,-9.962799,49.980875,45.048669)" fill="#ff0000"/>
<use data-text="&#x20d7;" xlink:href="#font_1_4" transform="matrix(9.963496,0,0,-9.962799,54.83332,45.048669)" fill="#ff0000"/>
<use data-text="u" xlink:href="#font_1_2" transform="matrix(9.963496,0,0,-9.962799,54.962839,45.048669)" fill="#ff0000"/>
</svg>
